<svg width="20" height="20" viewBox="0 0 20 20" fill="none" xmlns="http://www.w3.org/2000/svg">
<path d="M14.9551 9.50406L6.15039 2.62711C6.12738 2.60899 6.09974 2.59774 6.07062 2.59463C6.0415 2.59152 6.0121 2.59669 5.98579 2.60954C5.95948 2.62239 5.93733 2.6424 5.92187 2.66727C5.90642 2.69214 5.8983 2.72087 5.89844 2.75015V4.25992C5.89844 4.35562 5.94336 4.44742 6.01758 4.50601L13.0488 9.99625L6.01758 15.4865C5.94141 15.5451 5.89844 15.6369 5.89844 15.7326V17.2423C5.89844 17.3732 6.04883 17.4455 6.15039 17.3654L14.9551 10.4884C15.0299 10.4301 15.0904 10.3554 15.1321 10.2701C15.1737 10.1848 15.1953 10.0912 15.1953 9.99625C15.1953 9.90134 15.1737 9.80768 15.1321 9.72239C15.0904 9.6371 15.0299 9.56243 14.9551 9.50406Z" fill="#8C8C8C"/>
</svg>
