<svg width="17" height="16" viewBox="0 0 17 16" fill="none" xmlns="http://www.w3.org/2000/svg">
<path d="M14.1235 7.40625H4.98127L10.4531 2.65625C10.5406 2.57969 10.4875 2.4375 10.3719 2.4375H8.98908C8.92815 2.4375 8.87033 2.45937 8.82502 2.49844L2.92033 7.62187C2.86625 7.66875 2.82288 7.72671 2.79316 7.79181C2.76343 7.85692 2.74805 7.92765 2.74805 7.99922C2.74805 8.07079 2.76343 8.14152 2.79316 8.20663C2.82288 8.27173 2.86625 8.32968 2.92033 8.37656L8.8594 13.5312C8.88283 13.5516 8.91096 13.5625 8.94065 13.5625H10.3703C10.486 13.5625 10.5391 13.4187 10.4516 13.3438L4.98127 8.59375H14.1235C14.1922 8.59375 14.2485 8.5375 14.2485 8.46875V7.53125C14.2485 7.4625 14.1922 7.40625 14.1235 7.40625Z" fill="#F5222D"/>
</svg>
