<svg width="29" height="28" viewBox="0 0 29 28" fill="none" xmlns="http://www.w3.org/2000/svg">
<path d="M24.7238 14.5961C25.1832 13.9891 25.4375 13.2453 25.4375 12.4715C25.4375 11.2438 24.7512 10.0817 23.6465 9.43361C23.3621 9.2668 23.0383 9.17901 22.7086 9.17932H16.1516L16.3156 5.81877C16.3539 5.00666 16.0668 4.23557 15.509 3.64768C15.2352 3.35791 14.905 3.12736 14.5386 2.97028C14.1722 2.81319 13.7775 2.73291 13.3789 2.7344C11.957 2.7344 10.6992 3.69143 10.3219 5.06135L7.97305 13.5653H4.4375C3.95352 13.5653 3.5625 13.9563 3.5625 14.4403V24.3934C3.5625 24.8774 3.95352 25.2684 4.4375 25.2684H20.8793C21.1309 25.2684 21.377 25.2192 21.6039 25.1207C22.9055 24.5656 23.7449 23.2942 23.7449 21.8832C23.7449 21.5387 23.6957 21.1996 23.5973 20.8715C24.0566 20.2645 24.3109 19.5207 24.3109 18.7469C24.3109 18.4024 24.2617 18.0633 24.1633 17.7352C24.6227 17.1281 24.877 16.3844 24.877 15.6106C24.8715 15.266 24.8223 14.9242 24.7238 14.5961ZM5.53125 23.2996V15.534H7.74609V23.2996H5.53125ZM22.9328 13.6473L22.334 14.1668L22.7141 14.8613C22.8393 15.0901 22.9042 15.347 22.9027 15.6078C22.9027 16.059 22.7059 16.4883 22.3668 16.7836L21.768 17.3031L22.148 17.9977C22.2733 18.2265 22.3382 18.4834 22.3367 18.7442C22.3367 19.1953 22.1398 19.6246 21.8008 19.9199L21.202 20.4395L21.582 21.134C21.7072 21.3628 21.7722 21.6197 21.7707 21.8805C21.7707 22.493 21.4098 23.0453 20.852 23.2969H9.49609V15.4465L12.2168 5.58908C12.287 5.33643 12.4376 5.11352 12.6458 4.95415C12.854 4.79478 13.1085 4.70762 13.3707 4.70588C13.5785 4.70588 13.7836 4.76604 13.9477 4.88908C14.2184 5.09143 14.3633 5.39768 14.3469 5.72307L14.0844 11.1481H22.6812C23.168 11.4461 23.4688 11.9492 23.4688 12.4715C23.4688 12.9227 23.2719 13.3492 22.9328 13.6473Z" fill="#595959"/>
</svg>
