<svg width="27" height="26" viewBox="0 0 27 26" fill="none" xmlns="http://www.w3.org/2000/svg">
<path d="M23.9688 8.59221C23.3991 7.23261 22.5704 5.99682 21.5287 4.95373C20.4902 3.90883 19.2566 3.07807 17.8979 2.50862C16.506 1.92243 15.0105 1.62195 13.5002 1.62502H13.4494C11.9133 1.63264 10.428 1.93733 9.02894 2.53655C7.68189 3.11183 6.45984 3.94407 5.43108 4.98674C4.39954 6.02749 3.58029 7.25895 3.01897 8.61252C2.4363 10.0201 2.14105 11.53 2.15062 13.0533C2.15823 14.8155 2.57972 16.5649 3.36683 18.1289V21.9883C3.36683 22.6332 3.88987 23.1563 4.53226 23.1563H8.38655C9.95791 23.9492 11.6919 24.3664 13.452 24.375H13.5053C15.0237 24.375 16.4938 24.0805 17.8801 23.5041C19.2319 22.9415 20.461 22.1204 21.4983 21.0869C22.5444 20.0485 23.367 18.8348 23.9434 17.4815C24.5401 16.0799 24.8448 14.5895 24.8524 13.0508C24.8575 11.5045 24.5578 10.0039 23.9688 8.59221ZM8.43226 14.2188C7.76194 14.2188 7.21605 13.6729 7.21605 13C7.21605 12.3272 7.76194 11.7813 8.43226 11.7813C9.10257 11.7813 9.64847 12.3272 9.64847 13C9.64847 13.6729 9.10511 14.2188 8.43226 14.2188ZM13.5002 14.2188C12.8299 14.2188 12.284 13.6729 12.284 13C12.284 12.3272 12.8299 11.7813 13.5002 11.7813C14.1705 11.7813 14.7164 12.3272 14.7164 13C14.7164 13.6729 14.1705 14.2188 13.5002 14.2188ZM18.5682 14.2188C17.8979 14.2188 17.352 13.6729 17.352 13C17.352 12.3272 17.8979 11.7813 18.5682 11.7813C19.2385 11.7813 19.7844 12.3272 19.7844 13C19.7844 13.6729 19.2385 14.2188 18.5682 14.2188Z" fill="#434343"/>
</svg>
