<svg width="29" height="28" viewBox="0 0 29 28" fill="none" xmlns="http://www.w3.org/2000/svg">
<g clip-path="url(#clip0_1572_69007)">
<path d="M27.5156 14.9844C26.9715 14.9844 26.5312 14.5441 26.5312 14C26.5312 12.3758 26.2141 10.8008 25.5852 9.31602C24.9802 7.88664 24.1046 6.58769 23.0066 5.49062C21.9108 4.39118 20.6115 3.51541 19.1813 2.91211C17.6992 2.28594 16.1242 1.96875 14.5 1.96875C13.9559 1.96875 13.5156 1.52852 13.5156 0.984375C13.5156 0.440234 13.9559 0 14.5 0C16.3895 0 18.2242 0.369141 19.9496 1.10195C21.6176 1.80469 23.1133 2.81641 24.3984 4.10156C25.6836 5.38672 26.6926 6.88516 27.398 8.55039C28.1281 10.2758 28.4973 12.1105 28.4973 14C28.5 14.5441 28.0598 14.9844 27.5156 14.9844Z" fill="white"/>
</g>
<defs>
<clipPath id="clip0_1572_69007">
<rect width="28" height="28" fill="white" transform="translate(0.5)"/>
</clipPath>
</defs>
</svg>
