<svg width="24" height="24" viewBox="0 0 24 24" fill="none" xmlns="http://www.w3.org/2000/svg">
<path d="M19.3172 16.4045C18.7306 15.8173 18.0451 15.3381 17.2922 14.9888C18.354 14.1287 19.0313 12.8162 19.0313 11.3443C19.0313 8.74743 16.8657 6.61696 14.2688 6.6568C11.7118 6.69664 9.65162 8.78024 9.65162 11.3443C9.65162 12.8162 10.3313 14.1287 11.3907 14.9888C10.6377 15.3379 9.95214 15.8171 9.36568 16.4045C8.086 17.6865 7.35943 19.3787 7.31256 21.1834C7.31193 21.2084 7.31632 21.2333 7.32546 21.2566C7.33461 21.2798 7.34832 21.3011 7.36579 21.319C7.38327 21.3369 7.40415 21.3511 7.42721 21.3608C7.45027 21.3706 7.47504 21.3756 7.50006 21.3755H8.81256C8.91334 21.3755 8.99772 21.2959 9.00006 21.1951C9.04459 19.8357 9.59537 18.563 10.5633 17.5974C11.0587 17.0995 11.6478 16.7047 12.2968 16.4359C12.9457 16.1672 13.6414 16.0298 14.3438 16.0318C15.7712 16.0318 17.1141 16.5873 18.1243 17.5974C19.0899 18.563 19.6407 19.8357 19.6876 21.1951C19.6899 21.2959 19.7743 21.3755 19.8751 21.3755H21.1876C21.2126 21.3756 21.2374 21.3706 21.2604 21.3608C21.2835 21.3511 21.3044 21.3369 21.3218 21.319C21.3393 21.3011 21.353 21.2798 21.3622 21.2566C21.3713 21.2333 21.3757 21.2084 21.3751 21.1834C21.3282 19.3787 20.6016 17.6865 19.3172 16.4045ZM14.3438 14.3443C13.5422 14.3443 12.7876 14.0326 12.2227 13.4654C11.9392 13.1842 11.7153 12.8487 11.5643 12.479C11.4133 12.1094 11.3383 11.7131 11.3438 11.3138C11.3508 10.5451 11.6579 9.80211 12.1946 9.25133C12.7571 8.67477 13.5094 8.35367 14.3133 8.3443C15.1079 8.33727 15.879 8.64664 16.4462 9.20211C17.0274 9.77164 17.3462 10.5334 17.3462 11.3443C17.3462 12.1459 17.0344 12.8982 16.4672 13.4654C16.189 13.745 15.858 13.9666 15.4935 14.1175C15.1291 14.2684 14.7383 14.3454 14.3438 14.3443ZM8.47272 11.963C8.45162 11.7591 8.4399 11.5529 8.4399 11.3443C8.4399 10.9716 8.47506 10.6084 8.54068 10.2545C8.55709 10.1701 8.51256 10.0834 8.43521 10.0482C8.11647 9.90524 7.8235 9.70836 7.57037 9.45993C7.27211 9.17072 7.0374 8.82252 6.88123 8.43754C6.72506 8.05256 6.65085 7.63925 6.66334 7.22399C6.68443 6.47164 6.98678 5.7568 7.51412 5.21774C8.09303 4.62477 8.87115 4.30133 9.6985 4.31071C10.4462 4.31774 11.168 4.60602 11.7141 5.11696C11.8993 5.29039 12.0587 5.48258 12.1922 5.68883C12.2391 5.76149 12.3305 5.79196 12.4102 5.76383C12.8227 5.62086 13.2587 5.52008 13.7063 5.47321C13.8376 5.45914 13.9126 5.31852 13.854 5.20133C13.0922 3.6943 11.536 2.65367 9.736 2.62555C7.13678 2.58571 4.97115 4.71618 4.97115 7.31071C4.97115 8.78258 5.6485 10.0951 6.71022 10.9552C5.9649 11.2998 5.27818 11.7755 4.68287 12.3709C3.3985 13.6529 2.67193 15.3451 2.62506 17.1521C2.62443 17.1771 2.62882 17.202 2.63796 17.2253C2.64711 17.2486 2.66082 17.2698 2.67829 17.2877C2.69576 17.3056 2.71665 17.3199 2.73971 17.3296C2.76277 17.3393 2.78754 17.3443 2.81256 17.3443H4.1274C4.22818 17.3443 4.31256 17.2646 4.3149 17.1638C4.35943 15.8045 4.91022 14.5318 5.87818 13.5662C6.56725 12.8771 7.411 12.399 8.33209 12.167C8.4235 12.1435 8.48443 12.0568 8.47272 11.963Z" fill="#634BF4"/>
</svg>
